<svg width="1024" height="1024" viewBox="0 0 1024 1024" xmlns="http://www.w3.org/2000/svg">
  <rect x="0" y="0" width="1024" height="1024" fill="#1EAA62" />
  <rect x="64" y="64" width="896" height="896" rx="210" fill="#1EAA62" />
  <path d="M340 730c76-55 133-147 164-276l37-151h68l-37 159c-11 44-24 84-40 119 45-25 90-66 134-123l47 43c-84 106-184 172-300 198-15 12-31 23-48 31L340 730z" fill="#FFFFFF" />
  <path d="M390 275c45 16 83 43 115 79 26-30 49-66 69-108h73c-22 68-53 126-93 175 22 45 36 97 43 156h-64c-6-40-16-75-31-105-36 37-77 65-124 85l-28-56c45-20 84-46 118-80-22-28-50-50-86-66l8-80z" fill="#FFFFFF" opacity="0.96" />
  <circle cx="673" cy="325" r="22" fill="#FFFFFF" opacity="0.96" />
</svg>
